<?xml version="1.0" encoding="UTF-8"?><svg id="a" xmlns="http://www.w3.org/2000/svg" viewBox="0 0 108.74 99.78"><defs><style>.b{fill:#fff;}.c{fill:#003251;}.d{fill:#cc2e30;}.e{fill:none;}.f{fill:#006454;}.g{fill:#002942;}.h{fill:#cf2f32;}.i{fill:#002a42;}</style></defs><path class="f" d="M53.46,6.63l.66,86.66,21.95-.29s4.68-.47,7.02-4.68c2.34-4.21,18.73-30.44,18.73-30.44,0,0,2.81-9.13,0-16.39S82.39,9.41,82.39,9.41c0,0-1.87-4.21-9.6-4.92-7.73-.7-19.11,.23-19.11,.23l-.22,1.9Z"/><path class="c" d="M53.68,6.89V45.17l-30.82,38.28L6.17,53.43s-1.76-6.67,.88-12.12S24.44,10.93,24.44,10.93c0,0,4.74-6.15,9.31-6.15s19.93-.06,19.93-.06v2.17Z"/><path class="h" d="M22.15,80.46l4.62,6.79c2.23,3.87,6.8,5.97,11.27,5.97h16.41l.35-51.77L22.15,80.46Z"/><polygon class="b" points="20.16 58.91 22.2 57.17 22.34 59.85 24.62 61.25 22.12 62.21 21.49 64.81 19.81 62.73 17.14 62.94 18.6 60.69 17.58 58.22 20.16 58.91"/><polygon class="b" points="25.89 51.86 27.86 50.04 28.11 52.71 30.45 54.02 27.99 55.08 27.46 57.7 25.7 55.69 23.04 56.01 24.4 53.7 23.28 51.27 25.89 51.86"/><rect class="b" x="53.27" y="92.02" width=".15" height="4.87"/><path class="i" d="M104.04,40.79l-17.32-29.99c-3.1-5.37-8.88-8.7-15.07-8.7H37.02c-6.2,0-11.97,3.33-15.07,8.7L4.63,40.79c-3.1,5.37-3.1,12.04,0,17.41l14.85,25.72,3.18-4.24-13.81-23.92c-2.23-3.87-2.23-8.67,0-12.54L26.16,13.23c2.23-3.87,6.39-6.27,10.86-6.27h34.63c4.47,0,8.63,2.4,10.86,6.27l17.32,29.99c2.23,3.87,2.23,8.67,0,12.54l-17.32,29.99c-2.23,3.87-6.39,6.27-10.86,6.27H37.02c-4.46,0-8.63-2.4-10.86-6.27l-2.84-4.92-3.18,4.24,1.8,3.12c3.1,5.37,8.88,8.7,15.07,8.7h34.63c6.2,0,11.97-3.33,15.07-8.7l17.32-29.99c3.1-5.37,3.1-12.04,0-17.41Z"/><polygon class="e" points="39.66 59.73 39.72 59.38 39.59 59.55 39.66 59.73"/><polygon class="b" points="53.86 42.09 53.86 39.84 45.44 37.01 53.86 42.09"/><path class="b" d="M53.52,51.55l-5.36-3.21-.28,.37-3.5,4.58-.96-1.5-1.75-2.73-1.28,6.8-1.43,1.92-4.9-13.55,3.21,3.36-1-4.29-10.47-2.32,12.44-1.39-9.74-1.12-2.66-5.52c-4.95,.54-6.99,3.67-6.99,3.67-3.28,4.25,.04,8.34,.04,8.34,.73-3.94,3.4-3.78,3.4-3.78-.63,.26-1.59,1.56-1.66,1.65,.07-.05,.75-.46,5.21,.04,4.75,.54,6.61,4.56,7.46,9.81,.84,5.22-5.61,16.93-5.7,17.1l3.66-2.37-.62,1.48-7.96,10.76-3.18,4.24,.66,1.15,3.18-4.24,5.32-7.19-.21,.51-2.7,6.47,7.32-7.88-.64,6.35,.44-.58-9.09,12.23c.14,.16,.29,.33,.43,.49,.18,.21,.38,.4,.58,.6l13.73-18.38-.09,7.68,7.95-12.36,.93,7.53,5.99-13.1,.3-.58-.04-11.07Z"/><path class="b" d="M31.82,35.95c.7,.49,1.35,.95,2.24,.95,.46,0,.92-.11,1.33-.32,.44-.23,.68-.57,.97-.96,.31-.41,.66-.84,.87-1.32l2.63-.7-10.62,.5c.48,.34,.97,.68,1.45,1.03l1.14,.81Z"/><path class="b" d="M53.86,33.08c0-.74,.01-1.48,.02-2.17l-.36-.17-1.89-.91,1.89-.99,.29-.15c.03-.59,.03-1.23,.03-1.81l-.32,.04-7.6,.89,5.82-3.14s-5.05,.57-9.53,1.7c-4.48,1.13-13.03,4.17-13.03,4.17l14.68-1.34-1.85,1.34,9.58,.51-4.59,2.27,6.52,1.33,.35,.06c0-.63-.02-.78,0-1.64Z"/><polygon class="b" points="53.88 47.25 53.88 43.11 50.8 42.7 53.88 47.25"/><path class="h" d="M53.62,85.79l.09-65.74c18.16,0,36.09,12.39,36.44,32.86,.34,19.67-18.37,32.88-36.53,32.88"/><g><path class="g" d="M61.08,47.6h0l.36-.3s0,.07-.02,.21h0c-.04,.56-.15,2.18-.09,4.25,0,.21,.01,.43,.02,.64,.04,1.03,.13,2.15,.29,3.29,.14,1.01,.34,2.04,.6,3.04,.14,.52,.29,1.02,.47,1.51,1.94,5.31,2.22,6.17,2.24,6.22-.12-.13-3.9-4.1-5.45-8.1h0c-.15-.38-.28-.76-.38-1.13,0,0-.02,.24-.06,.66-.06,.75-.16,2.05-.24,3.51,0,.17-.02,.34-.03,.52-.05,1.07-.09,2.18-.08,3.21,0,.8,.03,1.54,.09,2.15v.12l-.04-.13-1.24-2.87h0l-1.33-3.07"/><path class="g" d="M53.57,59.64c.01,2.32,.05,4.67,.05,6.99v10.18l.54,.99,.1-4.17,3.5,4.33-1.13-6.03,9.78,10.15-3.66-8.55,.05-4.22,1.54,5.97s1.13-8.29,7.52-7.31c.41,.82,.46,1.96-.26,2.78,0,0,1.29-.31,1.44-.67,0,0,.06,1.35-.5,2.06,0,0,.94-.59,1-.81-.01,.08-.22,1.2-.61,1.46,.08-.03,2.05-.85,2.58-1.76,0,0-.21,1.45-.71,1.87,0,0,5.45-2.52,4.98-6.33,0,0,2.27-4.02,1.8-4.74,0,0-2.47,2.32-4.38,3.3,0,0-.67-1.24,1.44-1.76,0,0-4-.89-4.04-4.02,0,0-.23-5.14,6.03-4.52,0,0,.66,2.66,.12,3.48,.07-.05,2.39-1.56,2.35-2.82,0,0,.23,2.39-.42,3.16,.08-.05,2.63-1.54,2.7-3.94,0,0,1.74-1.24,1.78-3.94,0,0,1.12-1.85,1.12-2.16s-.12-1.43-.12-1.43l-.93,.5-3.21-.46s1.78,2.55,2.37,2.78l.17,1.68-1.27,1.51-6.53-1.56,6.24-.02-6.1-1.99,6.35,.48-5.14-2.05,2.32-1.6s-2.95-.46-4.81,2.07c-1.68,2.29-1.88,2.76-1.91,2.83,.03-.16,.48-2.26,.96-2.93,0,0-4.09,2.18-6.81,4.14,0,0,.62-2.26,1.14-2.9-.07,.04-2.32,1.36-3.95,5.32-.4,1.06-.69,1.83-.89,2.39-.06,.16-.11,.31-.16,.44-.34,.96-.34,1.03-.34,1.03,0,0-.03-.37-.05-.94,0-.22-.01-.47-.02-.74,0-1.18,.07-2.69,.45-3.57,0,0-.89,1.27-1.27,2.01,0,0-.44-1.66-.46-3.92,0-.12,0-.24,0-.37,.01-1.46,.2-3.14,.79-4.78,.03-.1,.07-.2,.11-.29,.47-1.2,1.15-2.37,2.15-3.39,0,0-5.52,1.74-6.26,2.43,0,0,1.7-3.28,2.82-4.05-.1,.04-2.87,1.35-4.77,4.13-.26,.37-.5,.77-.71,1.2-.22,.44-.44,.91-.64,1.4-.14,.33-.27,.67-.4,1.03-.04,.12-.09,.25-.13,.38-.22,.64-.42,1.3-.6,1.98-.04,.15-.08,.3-.11,.45-.15,.62-.27,1.25-.36,1.88-.05,.32-.09,.64-.12,.96-.1,1.05-.11,2.09,0,3.06,.1,.88,.3,1.71,.62,2.45l.53-.89,1.21-2.04,.39-.66s.07-.84,.2-1.83c.16-1.16,.41-2.53,.76-3.03-.06,.05-.97,.86-1.08,1.12"/><path class="g" d="M83.07,45.81s-4.48-3.17-5.3-3.35c0,0-1.64-3.54-3.01-4.21,0,0,.22,3.24-.23,3.81,0,0-1.4-2.88-1.75-3.04,0,0,.44-.97,.89-1.12l-2.03-1.08-1.21,1.27,2.47,2.83s-2.34,.03-4.03,1c0,0,3.15,.73,4.04,2.34l-.81,.09-2.11-1.16,1.65,1.62-1.2,1.17h3.18s-2.48,1.51-2.59,4.29c0,0,3.6-5.46,9.11-4.81l-4.79-.41s1.67-1.52,3.6-.85,4.12,1.6,4.12,1.6Z"/><path class="g" d="M57.25,45.02s1.51-7.42,6.91-8.65c0,0-.73,1.97-.81,3.24,0,0-4.17,2.86-6.1,5.41Z"/><polygon class="g" points="62 32.89 63.04 35.56 65.94 33.66 62 32.89"/><path class="g" d="M65.09,37.87s.62-3.32,1.7-4.02l2.2,.7s-3.13,2.24-3.9,3.32Z"/><path class="g" d="M66.01,37.93l1.93-2.59,2.47,.89s-2.12,2.47-2.16,3.13l-.81-2.47-1.43,1.04Z"/><path class="g" d="M61.01,35.77c.04,.13,.07,.26,.11,.4,0,0,0-.15-.02-.41-.09-1.44-.64-6.28-3.84-8.05,0,0-.83,.18-1.67,.82,.08,2.63,.26,5.26,.36,7.89,.54,.41,.96,.98,1.2,1.62l2.28-1.05s-.41-.3-.89-.86c-.91-1.05-2.1-3-1.35-5.55,0,0,2.68,1.12,3.83,5.2Z"/></g><g><path class="d" d="M73.93,38.2c-.22-.01-.46-.04-.69-.09-.33,.33-.6,.92-.6,.92,.35,.15,1.75,3.04,1.75,3.04,.33-.42,.3-2.3,.26-3.25-.17-.18-.39-.42-.56-.6-.07,0-.12,0-.16-.01Z"/><path class="d" d="M56.4,59.58c-.12,.52-.25,1.04-.4,1.55l.08,.19,1.33,3.07h0l1.24,2.87,.06,.13v-.12c-.07-.61-.1-1.35-.1-2.15,0-1.02,.03-2.14,.08-3.21,0-.17,.02-.35,.03-.52,.08-1.46,.18-2.76,.24-3.51,.04-.42,.06-.66,.06-.66,.1,.37,.23,.75,.38,1.13h0c1.55,4,5.33,7.97,5.45,8.1-.02-.05-.29-.9-2.24-6.22-.18-.49-.34-1-.47-1.51-.27-.99-.46-2.02-.6-3.04-.16-1.14-.25-2.26-.29-3.29,0-.22-.02-.43-.02-.64-.06-2.07,.05-3.69,.09-4.25h0c.01-.14,.02-.21,.02-.21l-.36,.3h0"/><path class="d" d="M76.59,48.42c-.48,.67-.93,2.77-.96,2.93,.02-.07,.23-.54,1.91-2.83,1.85-2.53,4.81-2.07,4.81-2.07l-2.32,1.6,5.14,2.05-6.35-.48,6.1,1.99-6.24,.02,6.53,1.56,1.27-1.51-.17-1.68c-.6-.23-2.37-2.78-2.37-2.78l3.21,.46,.93-.5v.08c.03-.1,.05-.2,.08-.3-.14-.01-.27-.02-.41-.04-1.65-.18-3.03-.54-4.47-1.41-.34-.21-.67-.43-1.02-.62-.04-.02-.26-.12-.39-.19-.28-.08-.57-.15-.85-.22,1.05,.71,1.94,1.34,1.94,1.34,0,0-2.19-.93-4.12-1.6s-3.6,.85-3.6,.85l4.34,.37c.15,0,.3,.02,.45,.04l-.45-.04c-5.25-.31-8.66,4.85-8.66,4.85,.1-2.78,2.59-4.29,2.59-4.29h-3.18l1.2-1.17-1.65-1.62,2.11,1.16,.81-.09c-.89-1.61-4.04-2.34-4.04-2.34,1.69-.98,4.03-1,4.03-1l-2.47-2.83,.71-.75c-.39-.18-.77-.38-1.15-.59-.62,.76-1.69,2.13-1.72,2.6l-.81-2.47-1.43,1.04,1.79-2.4s-.05-.03-.07-.04c-.96,.74-2.19,1.75-2.64,2.38,0,0,.25-1.34,.71-2.49-.15,.02-.3,.03-.45,.03-.62,.01-1.2-.07-1.74-.22l-.56,.37-.27-.68c-.76-.36-1.44-.88-2.02-1.52,.22,1.03,.31,1.91,.34,2.41,.02,.26,.02,.41,.02,.41-.03-.14-.07-.27-.11-.4-1.15-4.07-3.83-5.2-3.83-5.2-.76,2.55,.43,4.5,1.35,5.55,.49,.56,.89,.86,.89,.86l-1.3,.6c.1,.08,.2,.16,.3,.24,.56,.47,.91,1.27,1.01,2.1,1.07-1.59,2.6-3.07,4.75-3.56,0,0-.73,1.97-.81,3.24,0,0-2.78,1.91-4.86,4-.16,.46-.37,.91-.63,1.32-.13,.2-.27,.39-.4,.59-.08,.11-.14,.23-.21,.36h0v.02c0,.07,0,.14,0,.22,.16,.73,.32,1.47,.44,2.21,.05-.12,.09-.23,.14-.35,.21-.5,.42-.97,.64-1.4,.21-.43,.45-.82,.71-1.2,1.9-2.79,4.67-4.09,4.77-4.13-1.12,.78-2.82,4.05-2.82,4.05,.73-.7,6.26-2.43,6.26-2.43-.99,1.03-1.68,2.19-2.15,3.39h0c-.04,.1-.08,.2-.11,.29-.59,1.63-.78,3.31-.79,4.78,0,.12,0,.25,0,.37,.03,2.26,.46,3.92,.46,3.92,.39-.73,1.27-2.01,1.27-2.01-.38,.88-.46,2.39-.45,3.57,0,.27,0,.52,.02,.74,.02,.56,.05,.94,.05,.94,0,0,0-.08,.34-1.03,.05-.13,.1-.28,.16-.44,.2-.56,.49-1.33,.89-2.39,1.64-3.95,3.88-5.28,3.95-5.32-.53,.63-1.14,2.9-1.14,2.9,2.72-1.97,6.81-4.14,6.81-4.14Z"/></g></svg>