<?xml version="1.0" encoding="UTF-8"?><svg id="a" xmlns="http://www.w3.org/2000/svg" viewBox="0 0 297.48 54.52"><defs><style>.b{fill:#006454;}.c{fill:#cf2f32;}.d{fill:#002a42;}</style></defs><g><path class="b" d="M21.12,39.97c-1.04,0-2.02-.13-2.94-.4s-1.75-.63-2.48-1.09c-.73-.46-1.33-1-1.81-1.62-.48-.62-.78-1.27-.92-1.97l1.6-.42-.55,5H6.88V8.44h7.85v14.11l-1.68-.55c.17-.76,.5-1.45,.99-2.1,.49-.64,1.08-1.21,1.78-1.7,.7-.49,1.48-.87,2.35-1.13,.87-.27,1.78-.4,2.73-.4,1.93,0,3.63,.5,5.1,1.49,1.47,.99,2.63,2.37,3.48,4.13s1.28,3.78,1.28,6.05-.42,4.28-1.26,6.02-1.99,3.12-3.44,4.11c-1.45,.99-3.11,1.49-4.95,1.49Zm-2.27-6.42c.89,0,1.66-.22,2.29-.65,.63-.43,1.12-1.04,1.47-1.8,.35-.77,.52-1.69,.52-2.75s-.17-2.03-.5-2.81c-.34-.78-.83-1.38-1.47-1.78-.64-.41-1.41-.61-2.31-.61s-1.67,.2-2.31,.61c-.64,.41-1.14,1-1.49,1.78-.35,.78-.52,1.72-.52,2.81s.17,1.98,.52,2.75c.35,.77,.85,1.37,1.49,1.8,.64,.43,1.41,.65,2.31,.65Z"/><path class="b" d="M46.47,39.92c-2.55,0-4.74-.5-6.59-1.49-1.85-.99-3.27-2.36-4.28-4.11-1.01-1.75-1.51-3.74-1.51-5.98,0-1.68,.28-3.23,.84-4.66,.56-1.43,1.34-2.67,2.35-3.72s2.2-1.86,3.59-2.43c1.39-.57,2.9-.86,4.55-.86s3.1,.28,4.43,.84c1.33,.56,2.48,1.36,3.44,2.39,.97,1.04,1.71,2.25,2.22,3.65,.52,1.4,.75,2.94,.69,4.62l-.04,1.76h-17.63l-.97-3.9h12.34l-.76,.84v-.8c0-.62-.16-1.15-.48-1.62-.32-.46-.75-.82-1.28-1.07-.53-.25-1.13-.38-1.81-.38-.95,0-1.74,.19-2.37,.57s-1.11,.92-1.45,1.62c-.34,.7-.5,1.54-.5,2.52,0,1.12,.23,2.09,.69,2.9,.46,.81,1.15,1.44,2.06,1.89,.91,.45,2.02,.67,3.34,.67,.87,0,1.63-.11,2.29-.34,.66-.22,1.36-.62,2.12-1.18l3.61,5.08c-.98,.78-1.97,1.41-2.96,1.87-.99,.46-1.98,.8-2.96,1.01-.98,.21-1.97,.31-2.98,.31Z"/><path class="b" d="M60.91,39.5V17.13h7.3l.34,4.53-1.59,.5c.28-1.06,.83-2.01,1.64-2.83,.81-.83,1.78-1.48,2.9-1.95,1.12-.48,2.29-.71,3.53-.71,1.68,0,3.1,.34,4.26,1.03,1.16,.69,2.04,1.71,2.64,3.06,.6,1.36,.9,3.02,.9,4.97v13.77h-7.81v-13.14c0-.73-.11-1.34-.34-1.83s-.56-.86-1.01-1.11-.98-.36-1.59-.34c-.48,0-.92,.07-1.32,.21-.41,.14-.76,.36-1.07,.65-.31,.29-.54,.62-.69,.99-.15,.36-.23,.77-.23,1.22v13.35h-7.85Z"/><path class="b" d="M99.32,49.16c-1.93,0-3.85-.27-5.75-.82-1.9-.55-3.46-1.25-4.66-2.12l2.64-5.33c.62,.39,1.27,.73,1.95,1.03,.69,.29,1.41,.51,2.16,.65,.76,.14,1.55,.21,2.39,.21,1.34,0,2.44-.19,3.3-.57,.85-.38,1.48-.96,1.89-1.74,.41-.78,.61-1.79,.61-3.02v-3.53l1.64,.21c-.2,.92-.67,1.76-1.43,2.5-.76,.74-1.7,1.33-2.83,1.76-1.13,.43-2.32,.65-3.55,.65-2.02,0-3.79-.45-5.33-1.36-1.54-.91-2.76-2.18-3.65-3.8-.9-1.62-1.34-3.53-1.34-5.71s.44-4.26,1.32-5.98,2.08-3.07,3.59-4.05c1.51-.98,3.25-1.47,5.21-1.47,.84,0,1.64,.08,2.39,.25,.76,.17,1.46,.41,2.12,.71,.66,.31,1.24,.68,1.74,1.11,.5,.43,.92,.9,1.24,1.41,.32,.5,.54,1.04,.65,1.6l-1.59,.38,.38-5h7.3v20.32c0,1.88-.28,3.53-.84,4.97-.56,1.44-1.38,2.67-2.46,3.67s-2.38,1.77-3.9,2.29c-1.53,.52-3.25,.78-5.18,.78Zm.21-15.83c.95,0,1.76-.21,2.43-.63,.67-.42,1.19-1.01,1.55-1.76s.55-1.66,.55-2.73-.18-1.98-.55-2.75c-.36-.77-.88-1.36-1.55-1.76-.67-.41-1.48-.61-2.43-.61s-1.76,.2-2.44,.61c-.67,.41-1.18,.99-1.53,1.76-.35,.77-.52,1.69-.52,2.75s.17,1.97,.52,2.73c.35,.76,.86,1.34,1.53,1.76s1.48,.63,2.44,.63Z"/></g><g><path class="d" d="M130.53,39.47c-2.49,0-4.71-.5-6.65-1.49-1.95-.99-3.47-2.36-4.58-4.09-1.11-1.73-1.66-3.72-1.66-5.96V9.83h8.4V27.54c0,.92,.2,1.74,.59,2.46,.39,.71,.93,1.27,1.62,1.68,.69,.41,1.45,.61,2.29,.61,.92,0,1.73-.2,2.43-.61,.7-.41,1.26-.97,1.68-1.68,.42-.71,.63-1.53,.63-2.46V9.83h8.14V27.92c0,2.24-.55,4.23-1.66,5.96-1.11,1.74-2.62,3.1-4.55,4.09-1.93,.99-4.16,1.49-6.67,1.49Z"/><path class="d" d="M160.63,39.63c-2.1,0-3.97-.24-5.6-.71s-3.08-1.16-4.32-2.06c-1.25-.9-2.36-1.94-3.34-3.15l4.87-5.5c1.4,1.82,2.84,3.03,4.32,3.63,1.48,.6,2.92,.9,4.32,.9,.62,0,1.18-.06,1.68-.19s.89-.34,1.15-.63c.27-.29,.4-.66,.4-1.11,0-.39-.11-.73-.34-1.01-.22-.28-.53-.52-.92-.73-.39-.21-.83-.4-1.3-.57-.48-.17-.95-.3-1.43-.4-.48-.1-.94-.2-1.39-.31-1.65-.36-3.09-.83-4.32-1.39-1.23-.56-2.26-1.22-3.09-1.99-.83-.77-1.44-1.66-1.85-2.67-.41-1.01-.61-2.14-.61-3.4,0-1.37,.32-2.63,.97-3.78,.64-1.15,1.5-2.13,2.56-2.96,1.06-.83,2.29-1.45,3.67-1.89,1.39-.43,2.83-.65,4.34-.65,2.07,0,3.83,.2,5.29,.61,1.45,.41,2.68,.99,3.67,1.74s1.85,1.64,2.58,2.64l-4.95,4.79c-.59-.64-1.22-1.18-1.91-1.6-.69-.42-1.39-.73-2.12-.94-.73-.21-1.47-.31-2.23-.31-.7,0-1.31,.07-1.83,.21-.52,.14-.92,.34-1.2,.61-.28,.27-.42,.62-.42,1.07,0,.39,.15,.73,.46,1.03,.31,.29,.7,.54,1.18,.73,.48,.2,.99,.36,1.53,.48,.55,.13,1.04,.23,1.49,.31,1.54,.31,2.95,.71,4.22,1.2,1.27,.49,2.39,1.11,3.34,1.85,.95,.74,1.68,1.64,2.18,2.71,.5,1.06,.76,2.31,.76,3.74,0,2.1-.52,3.87-1.57,5.31-1.05,1.44-2.46,2.53-4.24,3.27-1.78,.74-3.79,1.11-6.02,1.11Z"/><path class="d" d="M173.98,39.21l11.71-29.39h6.72l11.63,29.39h-8.27l-5.04-13.64c-.28-.76-.53-1.45-.76-2.1-.22-.64-.43-1.27-.63-1.89-.2-.62-.38-1.24-.57-1.89-.18-.64-.34-1.34-.48-2.1l1.34-.04c-.17,.81-.34,1.54-.52,2.18-.18,.64-.37,1.26-.57,1.85-.2,.59-.41,1.2-.65,1.85-.24,.64-.5,1.36-.78,2.14l-5.04,13.64h-8.1Zm5.71-4.87l2.48-5.88h13.6l2.31,5.88h-18.39Z"/><path class="d" d="M209.83,39.68c-1.26,0-2.23-.35-2.92-1.05-.69-.7-1.03-1.69-1.03-2.98,0-1.18,.36-2.14,1.09-2.9,.73-.76,1.68-1.13,2.85-1.13s2.2,.35,2.9,1.05c.7,.7,1.05,1.69,1.05,2.98,0,1.18-.36,2.14-1.09,2.9s-1.68,1.13-2.85,1.13Z"/><path class="c" d="M219.07,48.45V16.84h7.3l.38,4.95-1.51-.38c.17-.95,.64-1.8,1.41-2.56,.77-.76,1.73-1.36,2.88-1.8,1.15-.45,2.39-.67,3.74-.67,1.88,0,3.54,.5,5,1.49,1.45,.99,2.6,2.36,3.44,4.09,.84,1.74,1.26,3.75,1.26,6.05s-.42,4.23-1.26,5.98c-.84,1.75-2,3.12-3.48,4.11-1.48,.99-3.18,1.49-5.08,1.49-1.26,0-2.46-.23-3.59-.69s-2.09-1.09-2.86-1.89-1.27-1.7-1.49-2.71l1.76-.59v14.73h-7.89Zm11.96-15.28c.89,0,1.66-.21,2.31-.63s1.13-1.01,1.47-1.78c.34-.77,.5-1.69,.5-2.75s-.17-2.02-.5-2.79c-.34-.77-.83-1.36-1.47-1.78-.64-.42-1.41-.63-2.31-.63s-1.67,.2-2.31,.61c-.64,.41-1.13,1-1.47,1.78-.34,.78-.5,1.72-.5,2.81s.17,1.98,.5,2.75c.34,.77,.83,1.36,1.47,1.78s1.41,.63,2.31,.63Z"/><path class="c" d="M247.87,39.21V16.84h7.3l.42,7.35-1.64-1.26c.36-1.23,.93-2.34,1.7-3.34,.77-.99,1.7-1.78,2.79-2.35,1.09-.57,2.24-.86,3.44-.86,.5,0,.98,.04,1.43,.11,.45,.07,.87,.16,1.26,.27l-2.14,8.65c-.31-.2-.74-.37-1.3-.52-.56-.15-1.16-.23-1.8-.23-.56,0-1.06,.09-1.51,.27-.45,.18-.83,.44-1.13,.78-.31,.34-.55,.73-.71,1.2-.17,.46-.25,1-.25,1.62v10.7h-7.85Z"/><path class="c" d="M278.43,39.63c-2.38,0-4.51-.5-6.38-1.51-1.88-1.01-3.34-2.38-4.41-4.11-1.06-1.73-1.6-3.74-1.6-6s.53-4.27,1.6-6c1.06-1.73,2.53-3.11,4.41-4.11,1.87-1.01,4-1.51,6.38-1.51s4.5,.5,6.36,1.51c1.86,1.01,3.32,2.38,4.39,4.11,1.06,1.74,1.59,3.74,1.59,6s-.53,4.27-1.59,6c-1.06,1.74-2.53,3.11-4.39,4.11-1.86,1.01-3.98,1.51-6.36,1.51Zm0-6.59c.84,0,1.6-.22,2.29-.65,.69-.43,1.22-1.03,1.59-1.8,.38-.77,.57-1.63,.57-2.58,0-1.01-.19-1.89-.57-2.64s-.91-1.35-1.59-1.78c-.69-.43-1.45-.65-2.29-.65s-1.64,.22-2.31,.65c-.67,.43-1.2,1.04-1.59,1.81s-.59,1.64-.59,2.62,.2,1.81,.59,2.58c.39,.77,.92,1.37,1.59,1.8,.67,.43,1.44,.65,2.31,.65Z"/></g></svg>