<?xml version="1.0" encoding="UTF-8"?><svg id="a" xmlns="http://www.w3.org/2000/svg" viewBox="0 0 112.3 93.56"><defs><style>.b{fill:#fff;}.c{fill:#003251;}.d{fill:#cc2e30;}.e{fill:none;}.f{fill:#006454;}.g{fill:#002942;}.h{fill:#cf2f32;}.i{fill:#002a42;}</style></defs><g><g><path class="f" d="M8.02,87.85c-.39,0-.77-.05-1.12-.15-.35-.1-.66-.24-.94-.41-.28-.18-.51-.38-.69-.61s-.3-.48-.35-.75l.61-.16-.21,1.9H2.62v-11.79h2.98v5.36l-.64-.21c.06-.29,.19-.55,.37-.8,.19-.24,.41-.46,.68-.65,.27-.19,.56-.33,.89-.43,.33-.1,.67-.15,1.04-.15,.73,0,1.38,.19,1.94,.57s1,.9,1.32,1.57c.32,.67,.49,1.44,.49,2.3s-.16,1.62-.48,2.29c-.32,.66-.76,1.19-1.31,1.56-.55,.38-1.18,.57-1.88,.57Zm-.86-2.44c.34,0,.63-.08,.87-.25,.24-.16,.43-.39,.56-.69,.13-.29,.2-.64,.2-1.04s-.06-.77-.19-1.07c-.13-.3-.31-.52-.56-.68s-.54-.23-.88-.23-.63,.08-.88,.23-.43,.38-.57,.68c-.13,.3-.2,.65-.2,1.07s.07,.75,.2,1.04c.13,.29,.32,.52,.57,.69,.24,.16,.54,.25,.88,.25Z"/><path class="f" d="M17.66,87.84c-.97,0-1.8-.19-2.5-.57-.7-.38-1.24-.9-1.63-1.56s-.57-1.42-.57-2.27c0-.64,.11-1.23,.32-1.77,.21-.54,.51-1.01,.89-1.41,.38-.4,.84-.71,1.36-.92,.53-.22,1.1-.33,1.73-.33s1.18,.11,1.68,.32c.5,.21,.94,.52,1.31,.91,.37,.39,.65,.86,.85,1.39,.2,.53,.28,1.12,.26,1.75l-.02,.67h-6.7l-.37-1.48h4.69l-.29,.32v-.3c0-.23-.06-.44-.18-.61-.12-.18-.28-.31-.49-.41s-.43-.14-.69-.14c-.36,0-.66,.07-.9,.22-.24,.14-.42,.35-.55,.61-.13,.27-.19,.58-.19,.96,0,.43,.09,.79,.26,1.1,.18,.31,.44,.55,.78,.72,.35,.17,.77,.26,1.27,.26,.33,0,.62-.04,.87-.13,.25-.08,.52-.23,.81-.45l1.37,1.93c-.37,.3-.75,.53-1.12,.71-.38,.18-.75,.3-1.12,.38s-.75,.12-1.13,.12Z"/><path class="f" d="M23.14,87.68v-8.5h2.77l.13,1.72-.61,.19c.11-.4,.31-.76,.62-1.08,.31-.31,.67-.56,1.1-.74s.87-.27,1.34-.27c.64,0,1.18,.13,1.62,.39,.44,.26,.78,.65,1,1.16,.23,.52,.34,1.15,.34,1.89v5.23h-2.97v-4.99c0-.28-.04-.51-.13-.69-.08-.19-.21-.33-.38-.42-.17-.1-.37-.14-.61-.13-.18,0-.35,.03-.5,.08-.15,.05-.29,.14-.41,.25-.12,.11-.2,.24-.26,.37-.06,.14-.09,.29-.09,.46v5.07h-2.98Z"/><path class="f" d="M37.74,91.35c-.73,0-1.46-.1-2.18-.31-.72-.21-1.31-.48-1.77-.81l1-2.03c.23,.15,.48,.28,.74,.39s.53,.19,.82,.25c.29,.05,.59,.08,.91,.08,.51,0,.93-.07,1.25-.22,.32-.14,.56-.36,.72-.66,.15-.3,.23-.68,.23-1.15v-1.34l.62,.08c-.07,.35-.26,.67-.54,.95-.29,.28-.65,.51-1.08,.67-.43,.16-.88,.25-1.35,.25-.77,0-1.44-.17-2.03-.52-.58-.35-1.05-.83-1.39-1.44-.34-.62-.51-1.34-.51-2.17s.17-1.62,.5-2.27c.33-.65,.79-1.17,1.36-1.54,.57-.37,1.23-.56,1.98-.56,.32,0,.62,.03,.91,.1,.29,.06,.56,.15,.8,.27,.25,.12,.47,.26,.66,.42,.19,.16,.35,.34,.47,.53s.2,.39,.25,.61l-.61,.14,.14-1.9h2.78v7.72c0,.71-.11,1.34-.32,1.89s-.52,1.01-.93,1.4c-.41,.38-.9,.67-1.48,.87-.58,.2-1.24,.3-1.97,.3Zm.08-6.01c.36,0,.67-.08,.92-.24,.26-.16,.45-.38,.59-.67,.14-.29,.21-.63,.21-1.04s-.07-.75-.21-1.04c-.14-.29-.33-.52-.59-.67s-.56-.23-.92-.23-.67,.08-.92,.23-.45,.38-.58,.67-.2,.64-.2,1.04,.07,.75,.2,1.04c.13,.29,.33,.51,.58,.67,.26,.16,.56,.24,.92,.24Z"/></g><g><path class="i" d="M49.59,87.66c-.95,0-1.79-.19-2.53-.57-.74-.38-1.32-.9-1.74-1.55-.42-.66-.63-1.41-.63-2.26v-6.87h3.19v6.73c0,.35,.07,.66,.22,.93,.15,.27,.35,.48,.61,.64,.26,.15,.55,.23,.87,.23,.35,0,.66-.08,.92-.23,.27-.15,.48-.37,.64-.64,.16-.27,.24-.58,.24-.93v-6.73h3.09v6.87c0,.85-.21,1.61-.63,2.26-.42,.66-1,1.18-1.73,1.55-.73,.38-1.58,.57-2.54,.57Z"/><path class="i" d="M61.03,87.73c-.8,0-1.51-.09-2.13-.27-.62-.18-1.17-.44-1.64-.78-.47-.34-.9-.74-1.27-1.2l1.85-2.09c.53,.69,1.08,1.15,1.64,1.38,.56,.23,1.11,.34,1.64,.34,.23,0,.45-.02,.64-.07,.19-.05,.34-.13,.44-.24,.1-.11,.15-.25,.15-.42,0-.15-.04-.28-.13-.38-.08-.11-.2-.2-.35-.28-.15-.08-.31-.15-.49-.22-.18-.06-.36-.11-.54-.15-.18-.04-.36-.08-.53-.12-.63-.14-1.18-.31-1.64-.53-.47-.21-.86-.46-1.17-.76-.31-.29-.55-.63-.7-1.01-.15-.38-.23-.81-.23-1.29,0-.52,.12-1,.37-1.44,.24-.44,.57-.81,.97-1.12,.4-.31,.87-.55,1.4-.72,.53-.16,1.08-.25,1.65-.25,.79,0,1.46,.08,2.01,.23,.55,.15,1.02,.37,1.4,.66,.38,.29,.7,.62,.98,1l-1.88,1.82c-.22-.24-.46-.45-.73-.61-.26-.16-.53-.28-.8-.36-.28-.08-.56-.12-.85-.12-.27,0-.5,.03-.69,.08-.2,.05-.35,.13-.45,.23-.11,.1-.16,.24-.16,.41,0,.15,.06,.28,.18,.39,.12,.11,.27,.2,.45,.28,.18,.07,.37,.14,.58,.18,.21,.05,.4,.09,.57,.12,.58,.12,1.12,.27,1.6,.45,.48,.19,.91,.42,1.27,.7,.36,.28,.64,.62,.83,1.03,.19,.4,.29,.88,.29,1.42,0,.8-.2,1.47-.6,2.02-.4,.55-.94,.96-1.61,1.24-.68,.28-1.44,.42-2.29,.42Z"/><path class="i" d="M66.1,87.57l4.45-11.16h2.55l4.42,11.16h-3.14l-1.91-5.18c-.11-.29-.2-.55-.29-.8-.09-.24-.17-.48-.24-.72s-.15-.47-.21-.72c-.07-.24-.13-.51-.18-.8l.51-.02c-.06,.31-.13,.58-.2,.83s-.14,.48-.22,.7-.16,.46-.25,.7c-.09,.24-.19,.52-.3,.81l-1.91,5.18h-3.08Zm2.17-1.85l.94-2.23h5.17l.88,2.23h-6.99Z"/><path class="i" d="M79.72,87.74c-.48,0-.85-.13-1.11-.4s-.39-.64-.39-1.13c0-.45,.14-.81,.41-1.1s.64-.43,1.08-.43,.83,.13,1.1,.4c.27,.27,.4,.64,.4,1.13,0,.45-.14,.81-.41,1.1-.28,.29-.64,.43-1.08,.43Z"/><path class="h" d="M83.23,91.08v-12.01h2.77l.14,1.88-.57-.14c.06-.36,.24-.69,.53-.97,.29-.29,.66-.52,1.09-.69s.91-.26,1.42-.26c.71,0,1.35,.19,1.9,.57s.99,.9,1.31,1.55c.32,.66,.48,1.43,.48,2.3s-.16,1.61-.48,2.27-.76,1.19-1.32,1.56c-.56,.38-1.21,.57-1.93,.57-.48,0-.93-.09-1.36-.26-.43-.18-.79-.41-1.08-.72-.29-.3-.48-.65-.57-1.03l.67-.22v5.6h-3Zm4.55-5.81c.34,0,.63-.08,.88-.24,.24-.16,.43-.39,.56-.68,.13-.29,.19-.64,.19-1.04s-.06-.77-.19-1.06c-.13-.29-.31-.52-.56-.68-.24-.16-.54-.24-.88-.24s-.63,.08-.88,.23-.43,.38-.56,.68c-.13,.3-.19,.65-.19,1.07s.06,.75,.19,1.04c.13,.29,.31,.52,.56,.68,.24,.16,.54,.24,.88,.24Z"/><path class="h" d="M94.17,87.57v-8.5h2.77l.16,2.79-.62-.48c.14-.47,.35-.89,.65-1.27s.65-.68,1.06-.89,.85-.33,1.31-.33c.19,0,.37,.01,.54,.04,.17,.03,.33,.06,.48,.1l-.81,3.29c-.12-.07-.28-.14-.49-.2-.21-.06-.44-.09-.69-.09-.21,0-.4,.03-.57,.1-.17,.07-.31,.17-.43,.3-.12,.13-.21,.28-.27,.45-.06,.18-.1,.38-.1,.61v4.07h-2.98Z"/><path class="h" d="M105.78,87.73c-.9,0-1.71-.19-2.42-.57-.71-.38-1.27-.9-1.67-1.56-.4-.66-.61-1.42-.61-2.28s.2-1.62,.61-2.28c.4-.66,.96-1.18,1.67-1.56,.71-.38,1.52-.57,2.42-.57s1.71,.19,2.42,.57c.71,.38,1.26,.9,1.67,1.56,.4,.66,.61,1.42,.61,2.28s-.2,1.62-.61,2.28c-.4,.66-.96,1.18-1.67,1.56-.71,.38-1.51,.57-2.42,.57Zm0-2.5c.32,0,.61-.08,.87-.25,.26-.16,.46-.39,.61-.69,.14-.29,.21-.62,.21-.98,0-.38-.07-.72-.21-1-.14-.29-.35-.51-.61-.68-.26-.16-.55-.25-.87-.25s-.62,.08-.88,.25c-.26,.16-.46,.39-.61,.69-.15,.29-.22,.62-.22,1s.07,.69,.22,.98c.15,.29,.35,.52,.61,.69,.26,.16,.55,.25,.88,.25Z"/></g></g><path class="f" d="M54.25,5.64l.48,62.69,15.88-.21s3.39-.34,5.08-3.39c1.69-3.05,13.55-22.02,13.55-22.02,0,0,2.03-6.61,0-11.86s-14.06-23.2-14.06-23.2c0,0-1.35-3.05-6.94-3.56-5.59-.51-13.82,.17-13.82,.17l-.16,1.38Z"/><path class="c" d="M54.41,5.83v27.69l-22.29,27.69-12.07-21.72s-1.27-4.83,.64-8.76,12.58-21.97,12.58-21.97c0,0,3.43-4.45,6.73-4.45s14.42-.04,14.42-.04v1.57Z"/><path class="h" d="M31.61,59.04l3.34,4.91c1.61,2.8,4.92,4.32,8.15,4.32h11.87l.25-37.44-23.61,28.21Z"/><polygon class="b" points="30.17 43.45 31.65 42.2 31.75 44.13 33.4 45.15 31.59 45.84 31.13 47.72 29.92 46.21 27.98 46.36 29.04 44.74 28.3 42.95 30.17 43.45"/><polygon class="b" points="34.32 38.35 35.74 37.04 35.92 38.97 37.61 39.91 35.83 40.68 35.45 42.58 34.18 41.12 32.25 41.35 33.24 39.69 32.43 37.93 34.32 38.35"/><rect class="b" x="54.12" y="67.4" width=".11" height="3.52"/><path class="i" d="M90.84,30.34l-12.53-21.7c-2.24-3.88-6.42-6.29-10.9-6.29h-25.05c-4.48,0-8.66,2.41-10.9,6.29l-12.53,21.7c-2.24,3.88-2.24,8.71,0,12.59l10.74,18.61,2.3-3.06-9.99-17.3c-1.61-2.8-1.61-6.27,0-9.07l12.53-21.7c1.61-2.8,4.62-4.53,7.85-4.53h25.05c3.23,0,6.24,1.74,7.85,4.53l12.53,21.7c1.61,2.8,1.61,6.27,0,9.07l-12.53,21.7c-1.61,2.8-4.62,4.53-7.85,4.53h-25.05c-3.23,0-6.24-1.74-7.85-4.53l-2.06-3.56-2.3,3.06,1.3,2.26c2.24,3.88,6.42,6.29,10.9,6.29h25.05c4.48,0,8.66-2.41,10.9-6.29l12.53-21.7c2.24-3.88,2.24-8.71,0-12.59Z"/><polygon class="e" points="44.27 44.04 44.32 43.79 44.23 43.91 44.27 44.04"/><polygon class="b" points="54.55 31.28 54.55 29.66 48.46 27.61 54.55 31.28"/><path class="b" d="M54.3,38.13l-3.88-2.32-.21,.27-2.54,3.32-.69-1.09-1.26-1.98-.93,4.92-1.03,1.39-3.54-9.8,2.32,2.43-.73-3.1-7.57-1.68,9-1.01-7.04-.81-1.93-4c-3.58,.39-5.06,2.65-5.06,2.65-2.37,3.07,.03,6.04,.03,6.04,.53-2.85,2.46-2.74,2.46-2.74-.46,.19-1.15,1.13-1.2,1.2,.05-.04,.54-.34,3.77,.03,3.44,.39,4.78,3.3,5.39,7.1,.61,3.77-4.06,12.24-4.13,12.37l2.64-1.71-.45,1.07-5.76,7.79-2.3,3.06,.48,.83,2.3-3.06,3.85-5.2-.15,.37-1.96,4.68,5.29-5.7-.46,4.6,.31-.42-6.57,8.85c.1,.12,.21,.24,.31,.35,.13,.15,.28,.29,.42,.43l9.93-13.3-.06,5.55,5.75-8.94,.67,5.45,4.33-9.47,.22-.42-.03-8.01Z"/><path class="b" d="M38.6,26.85c.5,.36,.97,.69,1.62,.69,.33,0,.66-.08,.96-.23,.32-.16,.49-.41,.7-.69,.22-.3,.48-.61,.63-.95l1.9-.5-7.68,.36c.35,.25,.7,.49,1.05,.74l.83,.58Z"/><path class="b" d="M54.55,24.77c0-.53,0-1.07,.02-1.57l-.26-.12-1.36-.66,1.36-.71,.21-.11c.02-.43,.02-.89,.02-1.31l-.23,.03-5.5,.65,4.21-2.27s-3.65,.41-6.89,1.23c-3.24,.82-9.43,3.02-9.43,3.02l10.62-.97-1.34,.97,6.93,.37-3.32,1.64,4.72,.96,.25,.04c0-.45-.01-.56,0-1.19Z"/><polygon class="b" points="54.56 35.02 54.56 32.03 52.33 31.73 54.56 35.02"/><path class="h" d="M54.37,62.89l.06-47.55c13.14,0,26.11,8.96,26.36,23.77,.24,14.23-13.29,23.78-26.42,23.78"/><g><path class="g" d="M59.77,35.27h0l.26-.22s0,.05-.01,.15h0c-.03,.41-.11,1.58-.06,3.07,0,.15,.01,.31,.02,.47,.03,.75,.1,1.55,.21,2.38,.1,.73,.24,1.48,.44,2.2,.1,.37,.21,.74,.34,1.09,1.41,3.84,1.61,4.46,1.62,4.5-.09-.09-2.82-2.97-3.94-5.86h0c-.11-.27-.2-.55-.27-.82,0,0-.02,.17-.04,.48-.05,.54-.12,1.48-.17,2.54,0,.12-.01,.25-.02,.37-.04,.77-.06,1.58-.06,2.32,0,.58,.02,1.11,.06,1.55v.09l-.03-.09-.9-2.07h0l-.96-2.22"/><path class="g" d="M54.34,43.98c0,1.68,.03,3.37,.03,5.06v7.36l.39,.72,.07-3.02,2.53,3.13-.82-4.36,7.08,7.34-2.64-6.18,.04-3.05,1.12,4.32s.82-6,5.44-5.29c.3,.6,.34,1.42-.19,2.01,0,0,.93-.22,1.04-.48,0,0,.05,.97-.36,1.49,0,0,.68-.43,.73-.58-.01,.06-.16,.87-.44,1.06,.06-.02,1.49-.61,1.87-1.27,0,0-.15,1.05-.52,1.35,0,0,3.94-1.83,3.6-4.58,0,0,1.64-2.9,1.3-3.43,0,0-1.79,1.68-3.17,2.38,0,0-.48-.89,1.04-1.28,0,0-2.9-.64-2.92-2.91,0,0-.17-3.72,4.36-3.27,0,0,.47,1.93,.09,2.51,.05-.03,1.73-1.13,1.7-2.04,0,0,.17,1.73-.31,2.29,.06-.03,1.9-1.12,1.95-2.85,0,0,1.26-.89,1.29-2.85,0,0,.81-1.34,.81-1.56s-.08-1.03-.08-1.03l-.67,.36-2.32-.34s1.28,1.84,1.72,2.01l.13,1.21-.92,1.09-4.72-1.13h4.51l-4.41-1.45,4.6,.35-3.72-1.48,1.68-1.16s-2.14-.34-3.48,1.49c-1.21,1.66-1.36,2-1.38,2.05,.02-.11,.35-1.63,.7-2.12,0,0-2.96,1.57-4.93,3,0,0,.45-1.64,.83-2.09-.05,.03-1.67,.99-2.86,3.85-.29,.77-.5,1.32-.64,1.73-.04,.12-.08,.23-.11,.32-.25,.69-.25,.75-.25,.75,0,0-.02-.27-.04-.68,0-.16-.01-.34-.01-.54,0-.85,.05-1.95,.33-2.58,0,0-.64,.92-.92,1.45,0,0-.31-1.2-.33-2.83,0-.09,0-.18,0-.27,0-1.06,.15-2.27,.57-3.45,.02-.07,.05-.14,.08-.21,.34-.87,.83-1.71,1.55-2.45,0,0-3.99,1.26-4.53,1.76,0,0,1.23-2.37,2.04-2.93-.07,.03-2.07,.97-3.45,2.99-.18,.27-.36,.56-.51,.87-.16,.32-.32,.66-.47,1.02-.1,.24-.2,.49-.29,.74-.03,.09-.07,.18-.1,.27-.16,.46-.31,.94-.43,1.44-.03,.11-.05,.22-.08,.33-.11,.45-.2,.9-.26,1.36-.03,.23-.06,.47-.09,.7-.07,.76-.08,1.51,0,2.21,.07,.64,.22,1.23,.45,1.77l.38-.64,.87-1.48,.28-.48s.05-.61,.15-1.33c.11-.84,.3-1.83,.55-2.19-.04,.04-.7,.62-.78,.81"/><path class="g" d="M75.67,33.98s-3.24-2.29-3.84-2.42c0,0-1.18-2.56-2.18-3.05,0,0,.16,2.35-.17,2.76,0,0-1.02-2.09-1.27-2.2,0,0,.32-.7,.64-.81l-1.47-.78-.88,.92,1.79,2.05s-1.69,.02-2.91,.73c0,0,2.28,.53,2.92,1.69l-.59,.07-1.53-.84,1.19,1.17-.87,.85h2.3s-1.8,1.09-1.87,3.1c0,0,2.61-3.95,6.59-3.48l-3.46-.3s1.21-1.1,2.61-.61,2.98,1.15,2.98,1.15Z"/><path class="g" d="M57,33.4s1.09-5.36,5-6.26c0,0-.53,1.42-.59,2.35,0,0-3.02,2.07-4.41,3.91Z"/><polygon class="g" points="60.43 24.63 61.19 26.56 63.28 25.19 60.43 24.63"/><path class="g" d="M62.67,28.24s.45-2.4,1.23-2.91l1.59,.5s-2.26,1.62-2.82,2.4Z"/><path class="g" d="M63.34,28.28l1.4-1.87,1.79,.64s-1.54,1.79-1.56,2.26l-.59-1.79-1.03,.75Z"/><path class="g" d="M59.72,26.72c.03,.09,.05,.19,.08,.29,0,0,0-.11-.01-.3-.07-1.05-.46-4.54-2.78-5.82,0,0-.6,.13-1.21,.59,.06,1.9,.19,3.8,.26,5.7,.39,.3,.7,.71,.87,1.17l1.65-.76s-.29-.22-.65-.62c-.66-.76-1.52-2.17-.97-4.02,0,0,1.94,.81,2.77,3.76Z"/></g><g><path class="d" d="M69.06,28.47c-.16,0-.33-.03-.5-.06-.24,.24-.43,.66-.43,.66,.25,.11,1.27,2.2,1.27,2.2,.24-.3,.22-1.66,.19-2.35-.13-.13-.28-.3-.41-.44-.05,0-.09,0-.12,0Z"/><path class="d" d="M56.38,43.93c-.09,.38-.18,.75-.29,1.12l.06,.14,.96,2.22h0l.9,2.07,.04,.09v-.09c-.05-.44-.07-.98-.07-1.55,0-.74,.02-1.55,.06-2.32,0-.13,.01-.25,.02-.37,.06-1.05,.13-2,.17-2.54,.03-.3,.04-.48,.04-.48,.07,.27,.17,.54,.27,.82h0c1.12,2.89,3.86,5.77,3.94,5.86-.01-.03-.21-.65-1.62-4.5-.13-.35-.24-.72-.34-1.09-.19-.72-.34-1.46-.44-2.2-.11-.82-.18-1.63-.21-2.38,0-.16-.01-.31-.02-.47-.04-1.49,.03-2.67,.06-3.07h0c0-.1,.01-.15,.01-.15l-.26,.22h0"/><path class="d" d="M70.99,35.86c-.35,.48-.67,2-.7,2.12,.02-.05,.17-.39,1.38-2.05,1.34-1.83,3.48-1.49,3.48-1.49l-1.68,1.16,3.72,1.48-4.6-.35,4.41,1.44h-4.51l4.72,1.15,.92-1.09-.13-1.21c-.43-.17-1.72-2.01-1.72-2.01l2.32,.34,.67-.36v.06c.02-.07,.04-.15,.06-.22-.1,0-.2-.02-.29-.03-1.19-.13-2.19-.39-3.23-1.02-.25-.15-.49-.31-.74-.45-.03-.02-.19-.09-.28-.14-.21-.06-.41-.11-.62-.16,.76,.51,1.4,.97,1.4,.97,0,0-1.58-.67-2.98-1.15s-2.61,.61-2.61,.61l3.14,.27c.11,0,.22,.02,.33,.03l-.33-.03c-3.8-.22-6.27,3.51-6.27,3.51,.07-2.01,1.87-3.1,1.87-3.1h-2.3l.87-.85-1.19-1.17,1.53,.84,.59-.07c-.64-1.16-2.92-1.69-2.92-1.69,1.22-.71,2.91-.73,2.91-.73l-1.79-2.05,.51-.54c-.28-.13-.56-.28-.83-.43-.45,.55-1.22,1.54-1.24,1.88l-.59-1.79-1.03,.75,1.3-1.74-.05-.03c-.7,.54-1.59,1.27-1.91,1.72,0,0,.18-.97,.51-1.8-.11,.01-.22,.02-.33,.02-.45,0-.86-.05-1.26-.16l-.41,.27-.19-.49c-.55-.26-1.04-.63-1.46-1.1,.16,.74,.22,1.38,.25,1.74,.01,.19,.01,.3,.01,.3-.02-.1-.05-.19-.08-.29-.83-2.95-2.77-3.76-2.77-3.76-.55,1.84,.31,3.26,.97,4.02,.35,.4,.65,.62,.65,.62l-.94,.44c.07,.06,.14,.11,.21,.17,.4,.34,.66,.92,.73,1.52,.77-1.15,1.88-2.22,3.44-2.57,0,0-.53,1.42-.59,2.35,0,0-2.01,1.38-3.51,2.89-.12,.33-.27,.66-.46,.95-.09,.14-.2,.28-.29,.42-.05,.08-.1,.17-.15,.26h0v.02c0,.05,0,.1,0,.16,.12,.53,.23,1.06,.32,1.6,.03-.08,.07-.17,.1-.25,.15-.36,.31-.7,.47-1.02,.16-.31,.33-.6,.51-.87,1.38-2.01,3.38-2.96,3.45-2.99-.81,.56-2.04,2.93-2.04,2.93,.53-.5,4.53-1.76,4.53-1.76-.72,.74-1.22,1.59-1.55,2.45h0c-.03,.07-.05,.14-.08,.21-.42,1.18-.56,2.4-.57,3.45,0,.09,0,.18,0,.27,.02,1.63,.33,2.83,.33,2.83,.28-.53,.92-1.45,.92-1.45-.28,.63-.33,1.73-.33,2.58,0,.2,0,.38,.01,.54,.01,.41,.04,.68,.04,.68,0,0,0-.05,.25-.75,.03-.09,.07-.2,.11-.32,.15-.4,.35-.96,.64-1.73,1.18-2.86,2.81-3.82,2.86-3.85-.38,.46-.83,2.09-.83,2.09,1.97-1.42,4.93-3,4.93-3Z"/></g></svg>