<?xml version="1.0" encoding="UTF-8"?><svg id="a" xmlns="http://www.w3.org/2000/svg" viewBox="0 0 361.78 65.48"><defs><style>.b{fill:#fff;}.c{fill:#003251;}.d{fill:#cc2e30;}.e{fill:none;}.f{fill:#006454;}.g{fill:#002942;}.h{fill:#cf2f32;}.i{fill:#002a42;}</style></defs><g><path class="f" d="M32.71,7.84l.58,50.71,12.71-.13s2.75-.28,4.13-2.75,11.01-17.9,11.01-17.9c0,0,1.65-5.37,0-9.64s-11.43-18.86-11.43-18.86c0,0-1.1-2.48-5.64-2.89s-11.36-.21-11.36-.21v1.67Z"/><path class="c" d="M32.83,7.79V30.3L14.71,52.81,4.9,35.16s-1.03-3.92,.52-7.12c1.55-3.2,10.22-17.86,10.22-17.86,0,0,2.79-3.61,5.47-3.61s11.72-.03,11.72-.03v1.27Z"/><path class="h" d="M14.3,51.05l2.72,3.99c1.31,2.27,4,3.51,6.63,3.51h9.65l.2-30.44L14.3,51.05Z"/><polygon class="b" points="13.13 38.38 14.33 37.36 14.41 38.93 15.75 39.76 14.28 40.32 13.91 41.85 12.92 40.63 11.35 40.75 12.21 39.43 11.61 37.97 13.13 38.38"/><polygon class="b" points="16.5 34.23 17.65 33.16 17.8 34.73 19.17 35.5 17.73 36.12 17.42 37.67 16.38 36.49 14.82 36.67 15.62 35.32 14.96 33.89 16.5 34.23"/><rect class="b" x="32.59" y="57.85" width=".09" height="2.86"/><path class="i" d="M62.45,27.72l-10.18-17.64c-1.82-3.16-5.22-5.12-8.86-5.12H23.04c-3.64,0-7.04,1.96-8.86,5.12L3.99,27.72c-1.82,3.16-1.82,7.08,0,10.23l8.73,15.12,1.87-2.49-8.12-14.07c-1.31-2.27-1.31-5.1,0-7.37L16.65,11.52c1.31-2.27,3.76-3.69,6.38-3.69h20.36c2.63,0,5.07,1.41,6.38,3.69l10.18,17.64c1.31,2.27,1.31,5.1,0,7.37l-10.18,17.64c-1.31,2.27-3.76,3.69-6.38,3.69H23.04c-2.63,0-5.07-1.41-6.38-3.69l-1.67-2.89-1.87,2.49,1.06,1.83c1.82,3.16,5.22,5.12,8.86,5.12h20.36c3.64,0,7.04-1.96,8.86-5.12l10.18-17.64c1.82-3.16,1.82-7.08,0-10.23Z"/><polygon class="e" points="24.59 38.86 24.63 38.65 24.55 38.76 24.59 38.86"/><polygon class="b" points="32.94 28.49 32.94 27.17 27.99 25.5 32.94 28.49"/><path class="b" d="M32.74,34.05l-3.15-1.89-.17,.22-2.06,2.69-.56-.88-1.03-1.61-.75,4-.84,1.13-2.88-7.97,1.88,1.98-.59-2.52-6.16-1.36,7.31-.82-5.72-.66-1.57-3.25c-2.91,.32-4.11,2.16-4.11,2.16-1.93,2.5,.02,4.91,.02,4.91,.43-2.32,2-2.23,2-2.23-.37,.15-.93,.92-.97,.97,.04-.03,.44-.27,3.06,.03,2.79,.32,3.88,2.68,4.38,5.77,.49,3.07-3.3,9.95-3.35,10.05l2.15-1.39-.37,.87-4.68,6.33-1.87,2.49,.39,.68,1.87-2.49,3.13-4.23-.12,.3-1.59,3.8,4.3-4.63-.37,3.74,.26-.34-5.34,7.19c.08,.1,.17,.19,.25,.29,.11,.12,.23,.24,.34,.35l8.07-10.81-.05,4.52,4.67-7.27,.54,4.43,3.52-7.7,.18-.34-.02-6.51Z"/><path class="b" d="M19.98,24.88c.41,.29,.79,.56,1.32,.56,.27,0,.54-.06,.78-.19,.26-.13,.4-.33,.57-.56,.18-.24,.39-.5,.51-.78l1.54-.41-6.25,.3c.28,.2,.57,.4,.85,.6l.67,.48Z"/><path class="b" d="M32.94,23.19c0-.43,0-.87,.01-1.27l-.21-.1-1.11-.54,1.11-.58,.17-.09c.02-.35,.01-.72,.01-1.06l-.19,.03-4.47,.52,3.42-1.85s-2.97,.33-5.6,1c-2.64,.67-7.66,2.45-7.66,2.45l8.63-.79-1.09,.79,5.63,.3-2.7,1.33,3.84,.78,.2,.03c0-.37-.01-.46,0-.96Z"/><polygon class="b" points="32.95 31.52 32.95 29.09 31.14 28.85 32.95 31.52"/><path class="h" d="M32.8,54.18l.05-38.65c10.68,0,21.22,7.28,21.43,19.32,.2,11.57-10.8,19.33-21.48,19.33"/><g><path class="g" d="M37.19,31.73h0l.21-.18s0,.04-.01,.12h0c-.03,.33-.09,1.28-.05,2.5,0,.12,0,.25,.01,.38,.03,.61,.08,1.26,.17,1.93,.08,.6,.2,1.2,.36,1.78,.08,.3,.17,.6,.28,.89,1.14,3.12,1.31,3.63,1.32,3.65-.07-.07-2.29-2.41-3.21-4.76h0c-.09-.22-.16-.44-.22-.66,0,0-.01,.14-.03,.39-.04,.44-.1,1.21-.14,2.06,0,.1-.01,.2-.02,.3-.03,.63-.05,1.28-.05,1.89,0,.47,.02,.9,.05,1.26v.07l-.03-.08-.73-1.69h0l-.78-1.81"/><path class="g" d="M32.77,38.81c0,1.37,.03,2.74,.03,4.11v5.98l.32,.58,.06-2.45,2.06,2.54-.67-3.54,5.75,5.97-2.15-5.03,.03-2.48,.91,3.51s.67-4.87,4.42-4.3c.24,.48,.27,1.15-.15,1.64,0,0,.76-.18,.85-.39,0,0,.04,.79-.29,1.21,0,0,.55-.35,.59-.47,0,.05-.13,.7-.36,.86,.05-.02,1.21-.5,1.52-1.03,0,0-.12,.85-.42,1.1,0,0,3.2-1.48,2.93-3.72,0,0,1.33-2.36,1.06-2.79,0,0-1.45,1.36-2.57,1.94,0,0-.39-.73,.85-1.04,0,0-2.35-.52-2.38-2.36,0,0-.14-3.02,3.54-2.66,0,0,.39,1.57,.07,2.04,.04-.03,1.41-.92,1.38-1.66,0,0,.14,1.41-.25,1.86,.05-.03,1.54-.91,1.59-2.31,0,0,1.02-.73,1.05-2.32,0,0,.66-1.09,.66-1.27s-.07-.84-.07-.84l-.54,.29-1.88-.27s1.04,1.5,1.4,1.64l.1,.99-.75,.89-3.84-.92h3.67l-3.59-1.18,3.74,.28-3.02-1.2,1.36-.94s-1.74-.27-2.83,1.22c-.99,1.35-1.11,1.62-1.12,1.66,.02-.09,.28-1.33,.57-1.72,0,0-2.41,1.28-4,2.44,0,0,.36-1.33,.67-1.7-.04,.02-1.36,.8-2.32,3.13-.24,.62-.4,1.08-.52,1.41-.04,.1-.07,.18-.09,.26-.2,.56-.2,.61-.2,.61,0,0-.02-.22-.03-.55,0-.13,0-.28,0-.44,0-.69,.04-1.58,.27-2.1,0,0-.52,.75-.75,1.18,0,0-.26-.97-.27-2.3,0-.07,0-.14,0-.22,0-.86,.12-1.85,.47-2.81,.02-.06,.04-.11,.06-.17,.27-.71,.68-1.39,1.26-1.99,0,0-3.25,1.02-3.68,1.43,0,0,1-1.93,1.66-2.38-.06,.03-1.69,.79-2.81,2.43-.15,.22-.29,.45-.42,.7-.13,.26-.26,.53-.38,.83-.08,.19-.16,.4-.24,.6-.03,.07-.05,.15-.08,.22-.13,.37-.25,.77-.35,1.17-.02,.09-.04,.18-.07,.27-.09,.36-.16,.73-.21,1.1-.03,.19-.05,.38-.07,.57-.06,.62-.07,1.23,0,1.8,.06,.52,.18,1,.37,1.44l.31-.52,.71-1.2,.23-.39s.04-.49,.12-1.08c.09-.68,.24-1.49,.45-1.78-.03,.03-.57,.5-.63,.66"/><path class="g" d="M50.12,30.68s-2.63-1.86-3.12-1.97c0,0-.96-2.08-1.77-2.48,0,0,.13,1.91-.14,2.24,0,0-.83-1.7-1.03-1.79,0,0,.26-.57,.52-.66l-1.2-.64-.71,.75,1.45,1.67s-1.38,.02-2.37,.59c0,0,1.85,.43,2.38,1.38l-.48,.05-1.24-.68,.97,.95-.7,.69h1.87s-1.46,.89-1.52,2.52c0,0,2.12-3.21,5.36-2.83l-2.82-.24s.98-.89,2.12-.5,2.42,.94,2.42,.94Z"/><path class="g" d="M34.94,30.21s.89-4.36,4.06-5.09c0,0-.43,1.16-.48,1.91,0,0-2.45,1.68-3.59,3.18Z"/><polygon class="g" points="37.73 23.08 38.34 24.65 40.04 23.54 37.73 23.08"/><path class="g" d="M39.55,26.01s.36-1.95,1-2.36l1.29,.41s-1.84,1.32-2.29,1.95Z"/><path class="g" d="M40.09,26.05l1.14-1.52,1.45,.52s-1.25,1.45-1.27,1.84l-.48-1.45-.84,.61Z"/><path class="g" d="M37.14,24.78c.02,.08,.04,.16,.06,.24,0,0,0-.09-.01-.24-.05-.85-.38-3.69-2.26-4.73,0,0-.49,.11-.98,.48,.05,1.55,.15,3.09,.21,4.64,.32,.24,.57,.58,.71,.95l1.34-.62s-.24-.18-.53-.5c-.54-.62-1.24-1.77-.79-3.27,0,0,1.58,.66,2.25,3.06Z"/></g><g><path class="d" d="M44.74,26.2c-.13,0-.27-.03-.41-.05-.19,.2-.35,.54-.35,.54,.2,.09,1.03,1.79,1.03,1.79,.2-.25,.18-1.35,.15-1.91-.1-.11-.23-.24-.33-.35-.04,0-.07,0-.09,0Z"/><path class="d" d="M34.43,38.77c-.07,.31-.15,.61-.24,.91l.05,.11,.78,1.81h0l.73,1.69,.03,.08v-.07c-.04-.36-.06-.79-.06-1.26,0-.6,.02-1.26,.05-1.89,0-.1,0-.2,.02-.3,.05-.86,.1-1.63,.14-2.06,.02-.24,.03-.39,.03-.39,.06,.22,.13,.44,.22,.66h0c.91,2.35,3.14,4.69,3.21,4.76,0-.03-.17-.53-1.32-3.65-.11-.29-.2-.59-.28-.89-.16-.58-.27-1.19-.36-1.78-.09-.67-.15-1.33-.17-1.93,0-.13-.01-.26-.01-.38-.03-1.21,.03-2.17,.05-2.5h0c0-.08,.01-.12,.01-.12l-.21,.18h0"/><path class="d" d="M46.3,32.21c-.28,.39-.55,1.63-.57,1.72,.01-.04,.13-.32,1.12-1.66,1.09-1.49,2.83-1.22,2.83-1.22l-1.36,.94,3.02,1.2-3.74-.28,3.59,1.17h-3.67l3.84,.93,.75-.89-.1-.99c-.35-.14-1.4-1.64-1.4-1.64l1.88,.27,.54-.29v.05c.02-.06,.03-.12,.05-.18-.08,0-.16-.01-.24-.02-.97-.11-1.78-.32-2.63-.83-.2-.12-.4-.25-.6-.37-.02-.01-.15-.07-.23-.11-.17-.05-.33-.09-.5-.13,.62,.42,1.14,.79,1.14,.79,0,0-1.29-.55-2.42-.94s-2.12,.5-2.12,.5l2.55,.22c.09,0,.18,.01,.27,.02l-.27-.02c-3.09-.18-5.09,2.85-5.09,2.85,.06-1.64,1.52-2.52,1.52-2.52h-1.87l.7-.69-.97-.95,1.24,.68,.48-.05c-.52-.95-2.38-1.38-2.38-1.38,.99-.58,2.37-.59,2.37-.59l-1.45-1.67,.42-.44c-.23-.11-.46-.22-.68-.35-.37,.45-1,1.25-1.01,1.53l-.48-1.45-.84,.61,1.05-1.41-.04-.02c-.57,.44-1.29,1.03-1.55,1.4,0,0,.15-.79,.42-1.47-.09,0-.18,.02-.27,.02-.36,0-.7-.04-1.02-.13l-.33,.22-.16-.4c-.45-.21-.84-.52-1.19-.89,.13,.6,.18,1.12,.2,1.41,0,.15,.01,.24,.01,.24-.02-.08-.04-.16-.06-.24-.68-2.4-2.25-3.06-2.25-3.06-.44,1.5,.25,2.65,.79,3.27,.29,.33,.53,.5,.53,.5l-.77,.35c.06,.05,.12,.09,.17,.14,.33,.27,.53,.75,.59,1.23,.63-.94,1.53-1.8,2.8-2.09,0,0-.43,1.16-.48,1.91,0,0-1.64,1.12-2.86,2.35-.09,.27-.22,.54-.37,.77-.07,.12-.16,.23-.23,.35-.04,.07-.08,.14-.12,.21h0c0,.06,0,.1,0,.14,.09,.43,.19,.86,.26,1.3,.03-.07,.05-.14,.08-.2,.12-.29,.25-.57,.38-.83,.13-.25,.27-.48,.42-.7,1.12-1.64,2.75-2.4,2.81-2.43-.66,.46-1.66,2.38-1.66,2.38,.43-.41,3.68-1.43,3.68-1.43-.58,.6-.99,1.29-1.26,1.99h0c-.02,.06-.04,.11-.06,.17-.35,.96-.46,1.95-.47,2.81,0,.07,0,.15,0,.22,.02,1.33,.27,2.3,.27,2.3,.23-.43,.75-1.18,.75-1.18-.23,.52-.27,1.41-.27,2.1,0,.16,0,.31,0,.44,.01,.33,.03,.55,.03,.55,0,0,0-.04,.2-.61,.03-.08,.06-.16,.09-.26,.12-.33,.29-.78,.52-1.41,.96-2.32,2.28-3.1,2.32-3.13-.31,.37-.67,1.7-.67,1.7,1.6-1.16,4-2.44,4-2.44Z"/></g></g><g><g><path class="f" d="M90.58,50.07c-1.04,0-2.02-.13-2.94-.4s-1.75-.63-2.48-1.09c-.73-.46-1.33-1-1.81-1.62-.48-.62-.78-1.27-.92-1.97l1.6-.42-.55,5h-7.14V18.55h7.85v14.11l-1.68-.55c.17-.76,.5-1.45,.99-2.1,.49-.64,1.08-1.21,1.78-1.7,.7-.49,1.48-.87,2.35-1.13,.87-.27,1.78-.4,2.73-.4,1.93,0,3.63,.5,5.1,1.49,1.47,.99,2.63,2.37,3.48,4.13s1.28,3.78,1.28,6.05-.42,4.28-1.26,6.02-1.99,3.12-3.44,4.11c-1.45,.99-3.11,1.49-4.95,1.49Zm-2.27-6.42c.89,0,1.66-.22,2.29-.65,.63-.43,1.12-1.04,1.47-1.8,.35-.77,.52-1.69,.52-2.75s-.17-2.03-.5-2.81c-.34-.78-.83-1.38-1.47-1.78-.64-.41-1.41-.61-2.31-.61s-1.67,.2-2.31,.61c-.64,.41-1.14,1-1.49,1.78-.35,.78-.52,1.72-.52,2.81s.17,1.98,.52,2.75c.35,.77,.85,1.37,1.49,1.8,.64,.43,1.41,.65,2.31,.65Z"/><path class="f" d="M115.93,50.03c-2.55,0-4.74-.5-6.59-1.49-1.85-.99-3.27-2.36-4.28-4.11-1.01-1.75-1.51-3.74-1.51-5.98,0-1.68,.28-3.23,.84-4.66,.56-1.43,1.34-2.67,2.35-3.72s2.2-1.86,3.59-2.43c1.39-.57,2.9-.86,4.55-.86s3.1,.28,4.43,.84c1.33,.56,2.48,1.36,3.44,2.39,.97,1.04,1.71,2.25,2.22,3.65,.52,1.4,.75,2.94,.69,4.62l-.04,1.76h-17.63l-.97-3.9h12.34l-.76,.84v-.8c0-.62-.16-1.15-.48-1.62-.32-.46-.75-.82-1.28-1.07-.53-.25-1.13-.38-1.81-.38-.95,0-1.74,.19-2.37,.57s-1.11,.92-1.45,1.62c-.34,.7-.5,1.54-.5,2.52,0,1.12,.23,2.09,.69,2.9,.46,.81,1.15,1.44,2.06,1.89,.91,.45,2.02,.67,3.34,.67,.87,0,1.63-.11,2.29-.34,.66-.22,1.36-.62,2.12-1.18l3.61,5.08c-.98,.78-1.97,1.41-2.96,1.87-.99,.46-1.98,.8-2.96,1.01-.98,.21-1.97,.31-2.98,.31Z"/><path class="f" d="M130.37,49.61V27.24h7.3l.34,4.53-1.59,.5c.28-1.06,.83-2.01,1.64-2.83,.81-.83,1.78-1.48,2.9-1.95,1.12-.48,2.29-.71,3.53-.71,1.68,0,3.1,.34,4.26,1.03,1.16,.69,2.04,1.71,2.64,3.06,.6,1.36,.9,3.02,.9,4.97v13.77h-7.81v-13.14c0-.73-.11-1.34-.34-1.83s-.56-.86-1.01-1.11-.98-.36-1.59-.34c-.48,0-.92,.07-1.32,.21-.41,.14-.76,.36-1.07,.65-.31,.29-.54,.62-.69,.99-.15,.36-.23,.77-.23,1.22v13.35h-7.85Z"/><path class="f" d="M168.78,59.27c-1.93,0-3.85-.27-5.75-.82-1.9-.55-3.46-1.25-4.66-2.12l2.64-5.33c.62,.39,1.27,.73,1.95,1.03,.69,.29,1.41,.51,2.16,.65,.76,.14,1.55,.21,2.39,.21,1.34,0,2.44-.19,3.3-.57,.85-.38,1.48-.96,1.89-1.74,.41-.78,.61-1.79,.61-3.02v-3.53l1.64,.21c-.2,.92-.67,1.76-1.43,2.5-.76,.74-1.7,1.33-2.83,1.76-1.13,.43-2.32,.65-3.55,.65-2.02,0-3.79-.45-5.33-1.36-1.54-.91-2.76-2.18-3.65-3.8-.9-1.62-1.34-3.53-1.34-5.71s.44-4.26,1.32-5.98,2.08-3.07,3.59-4.05c1.51-.98,3.25-1.47,5.21-1.47,.84,0,1.64,.08,2.39,.25,.76,.17,1.46,.41,2.12,.71,.66,.31,1.24,.68,1.74,1.11,.5,.43,.92,.9,1.24,1.41,.32,.5,.54,1.04,.65,1.6l-1.59,.38,.38-5h7.3v20.32c0,1.88-.28,3.53-.84,4.97-.56,1.44-1.38,2.67-2.46,3.67s-2.38,1.77-3.9,2.29c-1.53,.52-3.25,.78-5.18,.78Zm.21-15.83c.95,0,1.76-.21,2.43-.63,.67-.42,1.19-1.01,1.55-1.76s.55-1.66,.55-2.73-.18-1.98-.55-2.75c-.36-.77-.88-1.36-1.55-1.76-.67-.41-1.48-.61-2.43-.61s-1.76,.2-2.44,.61c-.67,.41-1.18,.99-1.53,1.76-.35,.77-.52,1.69-.52,2.75s.17,1.97,.52,2.73c.35,.76,.86,1.34,1.53,1.76s1.48,.63,2.44,.63Z"/></g><g><path class="i" d="M199.99,49.57c-2.49,0-4.71-.5-6.65-1.49-1.95-.99-3.47-2.36-4.58-4.09-1.11-1.73-1.66-3.72-1.66-5.96V19.94h8.4v17.72c0,.92,.2,1.74,.59,2.46,.39,.71,.93,1.27,1.62,1.68,.69,.41,1.45,.61,2.29,.61,.92,0,1.73-.2,2.43-.61,.7-.41,1.26-.97,1.68-1.68,.42-.71,.63-1.53,.63-2.46V19.94h8.14v18.09c0,2.24-.55,4.23-1.66,5.96-1.11,1.74-2.62,3.1-4.55,4.09-1.93,.99-4.16,1.49-6.67,1.49Z"/><path class="i" d="M230.09,49.74c-2.1,0-3.97-.24-5.6-.71s-3.08-1.16-4.32-2.06c-1.25-.9-2.36-1.94-3.34-3.15l4.87-5.5c1.4,1.82,2.84,3.03,4.32,3.63,1.48,.6,2.92,.9,4.32,.9,.62,0,1.18-.06,1.68-.19s.89-.34,1.15-.63c.27-.29,.4-.66,.4-1.11,0-.39-.11-.73-.34-1.01-.22-.28-.53-.52-.92-.73-.39-.21-.83-.4-1.3-.57-.48-.17-.95-.3-1.43-.4-.48-.1-.94-.2-1.39-.31-1.65-.36-3.09-.83-4.32-1.39-1.23-.56-2.26-1.22-3.09-1.99-.83-.77-1.44-1.66-1.85-2.67-.41-1.01-.61-2.14-.61-3.4,0-1.37,.32-2.63,.97-3.78,.64-1.15,1.5-2.13,2.56-2.96,1.06-.83,2.29-1.45,3.67-1.89,1.39-.43,2.83-.65,4.34-.65,2.07,0,3.83,.2,5.29,.61,1.45,.41,2.68,.99,3.67,1.74s1.85,1.64,2.58,2.64l-4.95,4.79c-.59-.64-1.22-1.18-1.91-1.6-.69-.42-1.39-.73-2.12-.94-.73-.21-1.47-.31-2.23-.31-.7,0-1.31,.07-1.83,.21-.52,.14-.92,.34-1.2,.61-.28,.27-.42,.62-.42,1.07,0,.39,.15,.73,.46,1.03,.31,.29,.7,.54,1.18,.73,.48,.2,.99,.36,1.53,.48,.55,.13,1.04,.23,1.49,.31,1.54,.31,2.95,.71,4.22,1.2,1.27,.49,2.39,1.11,3.34,1.85,.95,.74,1.68,1.64,2.18,2.71,.5,1.06,.76,2.31,.76,3.74,0,2.1-.52,3.87-1.57,5.31-1.05,1.44-2.46,2.53-4.24,3.27-1.78,.74-3.79,1.11-6.02,1.11Z"/><path class="i" d="M243.44,49.32l11.71-29.39h6.72l11.63,29.39h-8.27l-5.04-13.64c-.28-.76-.53-1.45-.76-2.1-.22-.64-.43-1.27-.63-1.89-.2-.62-.38-1.24-.57-1.89-.18-.64-.34-1.34-.48-2.1l1.34-.04c-.17,.81-.34,1.54-.52,2.18-.18,.64-.37,1.26-.57,1.85-.2,.59-.41,1.2-.65,1.85-.24,.64-.5,1.36-.78,2.14l-5.04,13.64h-8.1Zm5.71-4.87l2.48-5.88h13.6l2.31,5.88h-18.39Z"/><path class="i" d="M279.29,49.78c-1.26,0-2.23-.35-2.92-1.05-.69-.7-1.03-1.69-1.03-2.98,0-1.18,.36-2.14,1.09-2.9,.73-.76,1.68-1.13,2.85-1.13s2.2,.35,2.9,1.05c.7,.7,1.05,1.69,1.05,2.98,0,1.18-.36,2.14-1.09,2.9s-1.68,1.13-2.85,1.13Z"/><path class="h" d="M288.53,58.56V26.95h7.3l.38,4.95-1.51-.38c.17-.95,.64-1.8,1.41-2.56,.77-.76,1.73-1.36,2.88-1.8,1.15-.45,2.39-.67,3.74-.67,1.88,0,3.54,.5,5,1.49,1.45,.99,2.6,2.36,3.44,4.09,.84,1.74,1.26,3.75,1.26,6.05s-.42,4.23-1.26,5.98c-.84,1.75-2,3.12-3.48,4.11-1.48,.99-3.18,1.49-5.08,1.49-1.26,0-2.46-.23-3.59-.69s-2.09-1.09-2.86-1.89-1.27-1.7-1.49-2.71l1.76-.59v14.73h-7.89Zm11.96-15.28c.89,0,1.66-.21,2.31-.63s1.13-1.01,1.47-1.78c.34-.77,.5-1.69,.5-2.75s-.17-2.02-.5-2.79c-.34-.77-.83-1.36-1.47-1.78-.64-.42-1.41-.63-2.31-.63s-1.67,.2-2.31,.61c-.64,.41-1.13,1-1.47,1.78-.34,.78-.5,1.72-.5,2.81s.17,1.98,.5,2.75c.34,.77,.83,1.36,1.47,1.78s1.41,.63,2.31,.63Z"/><path class="h" d="M317.33,49.32V26.95h7.3l.42,7.35-1.64-1.26c.36-1.23,.93-2.34,1.7-3.34,.77-.99,1.7-1.78,2.79-2.35,1.09-.57,2.24-.86,3.44-.86,.5,0,.98,.04,1.43,.11,.45,.07,.87,.16,1.26,.27l-2.14,8.65c-.31-.2-.74-.37-1.3-.52-.56-.15-1.16-.23-1.8-.23-.56,0-1.06,.09-1.51,.27-.45,.18-.83,.44-1.13,.78-.31,.34-.55,.73-.71,1.2-.17,.46-.25,1-.25,1.62v10.7h-7.85Z"/><path class="h" d="M347.89,49.74c-2.38,0-4.51-.5-6.38-1.51-1.88-1.01-3.34-2.38-4.41-4.11-1.06-1.73-1.6-3.74-1.6-6s.53-4.27,1.6-6c1.06-1.73,2.53-3.11,4.41-4.11,1.87-1.01,4-1.51,6.38-1.51s4.5,.5,6.36,1.51c1.86,1.01,3.32,2.38,4.39,4.11,1.06,1.74,1.59,3.74,1.59,6s-.53,4.27-1.59,6c-1.06,1.74-2.53,3.11-4.39,4.11-1.86,1.01-3.98,1.51-6.36,1.51Zm0-6.59c.84,0,1.6-.22,2.29-.65,.69-.43,1.22-1.03,1.59-1.8,.38-.77,.57-1.63,.57-2.58,0-1.01-.19-1.89-.57-2.64s-.91-1.35-1.59-1.78c-.69-.43-1.45-.65-2.29-.65s-1.64,.22-2.31,.65c-.67,.43-1.2,1.04-1.59,1.81s-.59,1.64-.59,2.62,.2,1.81,.59,2.58c.39,.77,.92,1.37,1.59,1.8,.67,.43,1.44,.65,2.31,.65Z"/></g></g></svg>